Coordinates
version=1
nRows=17
nColumns=36
inDegrees=yes

Units are S.I. units (second, meters, Newtons, ...)
If the header above contains a line with 'inDegrees', this indicates whether rotational values are in degrees (yes) or radians (no).

endheader
time	pelvis_tilt	pelvis_list	pelvis_rotation	pelvis_tx	pelvis_ty	pelvis_tz	hip_flexion_r	hip_adduction_r	hip_rotation_r	knee_angle_r	knee_angle_r_beta	ankle_angle_r	subtalar_angle_r	mtp_angle_r	hip_flexion_l	hip_adduction_l	hip_rotation_l	knee_angle_l	knee_angle_l_beta	ankle_angle_l	subtalar_angle_l	mtp_angle_l	lumbar_extension	lumbar_bending	lumbar_rotation	arm_flex_r	arm_add_r	arm_rot_r	elbow_flex_r	pro_sup_r	arm_flex_l	arm_add_l	arm_rot_l	elbow_flex_l	pro_sup_l
      5.10000000	    -41.92173553	     -1.62673366	      3.05946284	      0.43779460	      0.53515073	     -0.04613183	    111.74425963	    -15.46909471	      4.74311308	    101.25197555	      1.76718035	     40.80576566	      0.62010923	     -7.49999987	    114.85225618	    -14.71558906	      4.41895810	    104.56110760	      1.82493560	     31.24661939	     -0.79366035	     -7.49999987	    -24.76940318	     -1.84275654	     -1.94520503	    116.72679153	     -6.76524219	     11.93942433	    102.82014970	     86.92697846	    111.00439277	      0.62801260	     19.63964618	    102.49775736	     83.67282883
      5.11666670	    -41.49544085	     -1.89711000	      2.94433191	      0.42389230	      0.51863331	     -0.04732974	    113.96476771	    -15.17212121	      5.24480645	    102.94415655	      1.79671448	     39.73855765	     -0.75625996	     -7.49999987	    116.85360512	    -14.74120099	      5.19030217	    105.98934571	      1.84986305	     30.87434133	     -0.37366223	     -7.49999987	    -26.42253684	     -1.98367674	     -2.12941630	    120.51888961	     -7.36373626	     11.01833984	    100.72356611	     87.13180408	    115.46751375	      0.71842961	     20.50738035	     99.14729463	     83.95122580
      5.13333330	    -41.22414114	     -2.02410814	      3.17990537	      0.41675011	      0.50976378	     -0.04716864	    115.61170735	    -15.05432426	      5.84161050	    104.23129977	      1.81917936	     38.98124627	     -2.10847981	     -7.49999987	    118.62112825	    -14.53926863	      5.51099361	    106.97947726	      1.86714411	     30.05691349	     -0.21539952	     -7.49999987	    -27.79012616	     -1.99716004	     -2.46609776	    123.21105924	     -7.89918845	      9.94385003	     99.56580672	     92.18254984	    117.96527133	      0.86508854	     19.85980984	     97.67402146	     88.51394219
      5.15000000	    -40.78807419	     -2.00431631	      3.45864712	      0.42350730	      0.50666623	     -0.04509205	    116.33658570	    -14.97408485	      6.20640351	    105.56497305	      1.84245635	     39.05683950	     -2.67146132	     -7.49999987	    119.35870956	    -14.66421423	      5.75436359	    107.93353370	      1.88379554	     29.71028634	     -0.00431698	     -7.49999987	    -28.74631218	     -2.07478073	     -2.57124504	    123.45626555	     -7.95272209	      9.79586991	     99.79652897	     92.18168645	    117.73701632	      0.46566695	     19.71813428	     97.65194166	     88.51980977
      5.16666670	    -40.32643414	     -1.80691291	      3.71415498	      0.41926032	      0.50646879	     -0.04847125	    116.39782827	    -14.95313595	      6.68928837	    106.15085081	      1.85268185	     38.95442656	     -3.39491502	     -7.49999987	    119.51083524	    -14.61992461	      5.34227706	    108.38347604	      1.89164851	     29.61847182	      0.29340148	     -7.49999987	    -29.81936011	     -2.14538174	     -2.70525590	    123.48003898	     -7.85490524	      9.73384904	    100.17888243	     92.19167196	    117.50810658	      0.21831487	     19.71677478	     97.80915256	     88.53868022
      5.18333330	    -39.92656885	     -1.54637949	      4.06615047	      0.41938927	      0.50191986	     -0.04792718	    116.64375389	    -14.95692381	      7.36081111	    106.93077747	      1.86629414	     38.46887225	     -4.96304401	     -7.49999987	    119.57651636	    -14.76496292	      4.81928018	    108.93909903	      1.90134596	     29.70467712	      0.79816109	     -7.49999987	    -30.58877308	     -2.22209083	     -3.64655245	    122.88111818	     -6.77834754	      9.03441995	    101.14838728	     94.17580952	    117.76327641	     -0.86712379	     20.48837546	     98.76745758	     89.17456854
      5.20000000	    -39.65539533	     -1.55731137	      4.50947025	      0.42047126	      0.50246180	     -0.04301690	    116.47255711	    -15.07361286	      7.57671061	    107.33527873	      1.87335402	     38.39836899	     -5.62259901	     -7.49999987	    119.61665155	    -14.88377601	      4.42370177	    109.13352640	      1.90473936	     28.87201120	      0.55867818	     -7.49999987	    -31.08618539	     -2.17867103	     -3.58003000	    122.23402107	     -6.74686566	      9.77349191	    102.21760682	     92.12020692	    116.52149413	     -1.52334790	     20.65079871	     99.46608693	     87.55872905
      5.21666670	    -39.25432654	     -1.46346822	      4.52416108	      0.40985411	      0.49755402	     -0.04804501	    116.33294919	    -14.94911414	      7.63802234	    107.29751174	      1.87269486	     38.08495591	     -6.06684891	     -7.49999987	    119.64729196	    -14.80395999	      4.09252510	    109.14737255	      1.90498102	     28.38463064	      0.08770683	     -7.49999987	    -31.81295339	     -2.16006791	     -3.45412133	    123.02679154	     -6.63652213	     10.04639194	    101.22893535	     90.13950661	    116.88986907	     -1.51488464	     20.87707382	     98.09756656	     86.00502666
      5.23333330	    -39.23865592	     -1.47565747	      4.60012635	      0.41528362	      0.50129690	     -0.04572122	    116.37128994	    -14.87985856	      7.69009600	    107.38031885	      1.87414012	     37.77587694	     -6.33536497	     -7.49999987	    119.64883277	    -14.88496045	      3.95964958	    108.79278184	      1.89879225	     27.89188292	     -0.03523084	     -7.49999987	    -32.00681072	     -2.13783185	     -3.33001010	    122.69577671	     -6.70684115	      9.70839834	    101.36878524	     94.79293893	    116.24614379	     -1.91093639	     20.67916138	     98.02088991	     90.03134334
      5.25000000	    -39.24752662	     -1.63906160	      4.70745864	      0.41449610	      0.50086817	     -0.04527239	    116.28183749	    -14.85178194	      7.57646898	    107.14600967	      1.87005065	     37.36042458	     -6.68045132	     -7.49999987	    119.62165365	    -14.81140330	      3.94541204	    108.50140340	      1.89370673	     27.98086869	      0.06881710	     -7.49999987	    -31.78731937	     -1.90248222	     -2.71648062	    122.07390421	     -7.22256321	     10.59512436	    101.35781496	     94.81908522	    114.83605277	     -1.63181217	     20.46141935	     98.06244554	     90.40577873
      5.26666670	    -39.34411481	     -1.60262861	      4.59924530	      0.40882336	      0.50182030	     -0.04784227	    116.32822118	    -14.68065264	      7.62591383	    106.57874854	      1.86015007	     37.07657681	     -6.51022109	     -7.49999987	    119.51693540	    -14.75671512	      3.89522668	    107.92982908	      1.88373088	     27.93178871	      0.14434679	     -7.49999987	    -31.60577410	     -1.87994357	     -2.56897293	    121.96670652	     -7.32051065	     10.63619386	    101.06326540	     94.82071755	    114.84714723	     -1.71877161	     20.40779323	     97.75712442	     90.40283157
      5.28333330	    -39.67298457	     -1.54302274	      4.36802371	      0.41233374	      0.50735359	     -0.05008333	    116.30810064	    -14.43249605	      7.60817723	    105.78063064	      1.84622029	     36.32703085	     -6.91757187	     -7.49999987	    119.51804287	    -14.83909704	      3.55430478	    107.59585966	      1.87790201	     27.23459423	     -0.68667100	     -7.49999987	    -30.61407928	     -2.03576155	     -1.89558789	    120.98502767	     -8.22088127	     11.39967720	    100.65954834	     93.88117836	    113.80745506	     -0.83530674	     20.09770292	     96.42921242	     89.60210088
      5.30000000	    -40.00139209	     -1.49189448	      4.14456246	      0.40691224	      0.51078694	     -0.04620877	    116.12203327	    -14.03915717	      7.41985525	    104.70672246	      1.82747706	     35.71089339	     -7.13996463	     -7.49999987	    119.39873459	    -14.91178052	      3.35486121	    106.82883502	      1.86451491	     26.78770968	     -1.22999982	     -7.49999987	    -29.83224424	     -2.23338419	     -1.53565928	    119.94264667	     -8.13407648	     11.47824801	    101.00197495	     93.97833466	    113.60064557	     -0.78533920	     19.93222143	     96.74350746	     89.67970386
      5.31666670	    -40.68861528	     -1.62234735	      3.86468310	      0.42040316	      0.51860337	     -0.04364943	    115.74627751	    -13.73523481	      6.84239760	    103.98118945	      1.81481412	     35.87882089	     -7.19096678	     -7.49999987	    119.28169522	    -15.37943927	      3.39749507	    106.21175123	      1.85374476	     26.33604375	     -1.57532875	     -7.49999987	    -28.37694077	     -2.29851473	     -1.12725722	    117.90894593	     -8.53671666	     11.92133408	    102.63000677	     93.21919639	    112.01260895	     -1.65750434	     20.41641147	     98.70072188	     89.01725585
      5.33333330	    -41.29002074	     -1.82136030	      3.77456614	      0.41951128	      0.52853806	     -0.04490217	    114.80399711	    -13.64139213	      6.12058332	    102.51151932	      1.78916353	     35.54244241	     -7.43860497	     -7.49999987	    118.83227034	    -15.61787162	      2.94943293	    105.00744857	      1.83272572	     25.88928435	     -1.88455218	     -7.49999987	    -26.85534765	     -2.22298404	     -0.72449008	    116.02985859	     -8.93439296	     12.61141290	    102.87697962	     90.98044891	    109.72115815	     -1.80189454	     20.62332908	     99.34649363	     86.92972428
      5.35000000	    -41.90487532	     -1.94644425	      3.88622541	      0.41216638	      0.54314855	     -0.04675163	    113.71494358	    -13.65706854	      5.70211661	    100.10608084	      1.74718071	     34.96637829	     -7.38325562	     -7.49999987	    117.67659587	    -15.35359179	      2.28881482	    102.86578088	      1.79534656	     25.16585634	     -2.77365424	     -7.49999987	    -25.70946207	     -2.21882065	     -0.49563145	    114.95270648	     -9.67498016	     13.16533834	    102.24656727	     87.39536006	    108.62812559	     -2.16815369	     21.39600080	     99.53576569	     83.77709561
      5.36666670	    -42.44440948	     -1.99146040	      3.91049793	      0.42178527	      0.56023484	     -0.04124649	    111.88746190	    -13.40476947	      4.95729253	     97.63912781	      1.70412426	     34.69787947	     -7.42696135	     -7.49999987	    115.77529079	    -15.43146776	      1.70789960	    100.33450117	      1.75116740	     24.41437546	     -3.47401435	     -7.49999987	    -24.47234821	     -2.15859338	     -0.36427367	    112.78537784	    -10.34075587	     13.75676194	    102.68784100	     94.30528317	    105.46209864	     -3.31871017	     21.04982304	    101.02503340	     89.76977768
